Agency_FB-Bold copy.ufo
<glyph name="ampersand" format="1">
  <advance width="488"/>
  <unicode hex="0026"/>
  <outline>
    <contour>
      <point x="466" y="349" type="line"/>
      <point x="412" y="349" type="line"/>
      <point x="412" y="0" type="line"/>
      <point x="113" y="0" type="line" smooth="yes"/>
      <point x="68" y="0"/>
      <point x="44" y="24"/>
      <point x="44" y="69" type="curve" smooth="yes"/>
      <point x="44" y="302" type="line" smooth="yes"/>
      <point x="44" y="333"/>
      <point x="48" y="345"/>
      <point x="74" y="363" type="curve" smooth="yes"/>
      <point x="126" y="399" type="line"/>
      <point x="75" y="434" type="line" smooth="yes"/>
      <point x="51" y="450"/>
      <point x="46" y="462"/>
      <point x="46" y="493" type="curve" smooth="yes"/>
      <point x="46" y="695" type="line" smooth="yes"/>
      <point x="46" y="740"/>
      <point x="70" y="764"/>
      <point x="115" y="764" type="curve" smooth="yes"/>
      <point x="347" y="764" type="line" smooth="yes"/>
      <point x="392" y="764"/>
      <point x="416" y="740"/>
      <point x="416" y="695" type="curve" smooth="yes"/>
      <point x="416" y="536" type="line"/>
      <point x="304" y="536" type="line"/>
      <point x="304" y="668" type="line"/>
      <point x="159" y="668" type="line"/>
      <point x="159" y="483" type="line"/>
      <point x="211" y="447" type="line"/>
      <point x="466" y="447" type="line"/>
    </contour>
    <contour>
      <point x="301" y="96" type="line"/>
      <point x="301" y="349" type="line"/>
      <point x="208" y="349" type="line"/>
      <point x="156" y="312" type="line"/>
      <point x="156" y="96" type="line"/>
    </contour>
  </outline>
</glyph>
<glyph name="plus" format="1">
  <advance width="474"/>
  <unicode hex="002B"/>
  <outline>
    <contour>
      <point x="438" y="287" type="line"/>
      <point x="289" y="287" type="line"/>
      <point x="289" y="141" type="line"/>
      <point x="185" y="141" type="line"/>
      <point x="185" y="287" type="line"/>
      <point x="36" y="287" type="line"/>
      <point x="36" y="382" type="line"/>
      <point x="185" y="382" type="line"/>
      <point x="185" y="528" type="line"/>
      <point x="289" y="528" type="line"/>
      <point x="289" y="382" type="line"/>
      <point x="438" y="382" type="line"/>
    </contour>
  </outline>
</glyph>
<glyph name="comma" format="1">
  <advance width="184"/>
  <unicode hex="002C"/>
  <outline>
    <contour>
      <point x="158" y="117" type="line"/>
      <point x="101" y="-79" type="line"/>
      <point x="27" y="-79" type="line"/>
      <point x="41" y="117" type="line"/>
    </contour>
  </outline>
</glyph>
<glyph name="four" format="1">
  <advance width="455"/>
  <unicode hex="0034"/>
  <outline>
    <contour>
      <point x="435" y="144" type="line"/>
      <point x="377" y="144" type="line"/>
      <point x="377" y="0" type="line"/>
      <point x="268" y="0" type="line"/>
      <point x="268" y="144" type="line"/>
      <point x="17" y="144" type="line"/>
      <point x="17" y="212" type="line"/>
      <point x="207" y="764" type="line"/>
      <point x="323" y="764" type="line"/>
      <point x="323" y="760" type="line"/>
      <point x="145" y="241" type="line"/>
      <point x="268" y="241" type="line"/>
      <point x="268" y="471" type="line"/>
      <point x="377" y="471" type="line"/>
      <point x="377" y="241" type="line"/>
      <point x="435" y="241" type="line"/>
    </contour>
  </outline>
</glyph>
<glyph name="nine" format="1">
  <advance width="461"/>
  <unicode hex="0039"/>
  <outline>
    <contour>
      <point x="415" y="70" type="line" smooth="yes"/>
      <point x="415" y="25"/>
      <point x="390" y="0"/>
      <point x="346" y="0" type="curve" smooth="yes"/>
      <point x="116" y="0" type="line" smooth="yes"/>
      <point x="72" y="0"/>
      <point x="47" y="25"/>
      <point x="47" y="70" type="curve" smooth="yes"/>
      <point x="47" y="232" type="line"/>
      <point x="159" y="232" type="line"/>
      <point x="159" y="98" type="line"/>
      <point x="302" y="98" type="line"/>
      <point x="302" y="328" type="line"/>
      <point x="112" y="328" type="line" smooth="yes"/>
      <point x="68" y="328"/>
      <point x="44" y="353"/>
      <point x="44" y="397" type="curve" smooth="yes"/>
      <point x="44" y="694" type="line" smooth="yes"/>
      <point x="44" y="739"/>
      <point x="68" y="764"/>
      <point x="112" y="764" type="curve" smooth="yes"/>
      <point x="345" y="764" type="line" smooth="yes"/>
      <point x="390" y="764"/>
      <point x="415" y="739"/>
      <point x="415" y="694" type="curve" smooth="yes"/>
    </contour>
    <contour>
      <point x="302" y="425" type="line"/>
      <point x="302" y="666" type="line"/>
      <point x="156" y="666" type="line"/>
      <point x="156" y="425" type="line"/>
    </contour>
  </outline>
</glyph>
<glyph name="greater" format="1">
  <advance width="364"/>
  <unicode hex="003E"/>
  <outline>
    <contour>
      <point x="333" y="301" type="line"/>
      <point x="49" y="99" type="line"/>
      <point x="42" y="99" type="line"/>
      <point x="42" y="217" type="line"/>
      <point x="211" y="330" type="line"/>
      <point x="42" y="443" type="line"/>
      <point x="42" y="561" type="line"/>
      <point x="49" y="561" type="line"/>
      <point x="333" y="359" type="line"/>
    </contour>
  </outline>
</glyph>
<glyph name="question" format="1">
  <advance width="424"/>
  <unicode hex="003F"/>
  <outline>
    <contour>
      <point x="389" y="536" type="line" smooth="yes"/>
      <point x="389" y="507"/>
      <point x="384" y="492"/>
      <point x="369" y="472" type="curve" smooth="yes"/>
      <point x="258" y="322" type="line"/>
      <point x="258" y="178" type="line"/>
      <point x="147" y="178" type="line"/>
      <point x="147" y="308" type="line" smooth="yes"/>
      <point x="147" y="338"/>
      <point x="152" y="354"/>
      <point x="167" y="374" type="curve" smooth="yes"/>
      <point x="277" y="523" type="line"/>
      <point x="277" y="669" type="line"/>
      <point x="148" y="669" type="line"/>
      <point x="148" y="530" type="line"/>
      <point x="36" y="530" type="line"/>
      <point x="36" y="694" type="line" smooth="yes"/>
      <point x="36" y="739"/>
      <point x="61" y="764"/>
      <point x="106" y="764" type="curve" smooth="yes"/>
      <point x="319" y="764" type="line" smooth="yes"/>
      <point x="363" y="764"/>
      <point x="389" y="739"/>
      <point x="389" y="694" type="curve" smooth="yes"/>
    </contour>
    <contour>
      <point x="260" y="0" type="line"/>
      <point x="145" y="0" type="line"/>
      <point x="145" y="117" type="line"/>
      <point x="260" y="117" type="line"/>
    </contour>
  </outline>
</glyph>
<glyph name="A" format="1">
  <advance width="451"/>
  <unicode hex="0041"/>
  <outline>
    <contour>
      <point x="433" y="0" type="line"/>
      <point x="320" y="0" type="line"/>
      <point x="297" y="145" type="line"/>
      <point x="154" y="145" type="line"/>
      <point x="131" y="0" type="line"/>
      <point x="18" y="0" type="line"/>
      <point x="18" y="2" type="line"/>
      <point x="166" y="765" type="line"/>
      <point x="286" y="765" type="line"/>
      <point x="433" y="2" type="line"/>
    </contour>
    <contour>
      <point x="281" y="243" type="line"/>
      <point x="225" y="588" type="line"/>
      <point x="169" y="243" type="line"/>
    </contour>
    <contour>
      <point x="225.5" y="764" type="move" name="top"/>
    </contour>
    <contour>
      <point x="420" y="0" type="move" name="ogonek"/>
    </contour>
  </outline>
</glyph>
<glyph name="C" format="1">
  <advance width="466"/>
  <unicode hex="0043"/>
  <outline>
    <contour>
      <point x="422" y="70" type="line" smooth="yes"/>
      <point x="422" y="25"/>
      <point x="397" y="0"/>
      <point x="352" y="0" type="curve" smooth="yes"/>
      <point x="114" y="0" type="line" smooth="yes"/>
      <point x="70" y="0"/>
      <point x="46" y="25"/>
      <point x="46" y="70" type="curve" smooth="yes"/>
      <point x="46" y="694" type="line" smooth="yes"/>
      <point x="46" y="739"/>
      <point x="70" y="764"/>
      <point x="114" y="764" type="curve" smooth="yes"/>
      <point x="352" y="764" type="line" smooth="yes"/>
      <point x="397" y="764"/>
      <point x="422" y="739"/>
      <point x="422" y="694" type="curve" smooth="yes"/>
      <point x="422" y="515" type="line"/>
      <point x="308" y="515" type="line"/>
      <point x="308" y="666" type="line"/>
      <point x="160" y="666" type="line"/>
      <point x="160" y="98" type="line"/>
      <point x="308" y="98" type="line"/>
      <point x="308" y="259" type="line"/>
      <point x="422" y="259" type="line"/>
    </contour>
    <contour>
      <point x="233.0" y="764" type="move" name="top"/>
    </contour>
    <contour>
      <point x="231" y="0" type="move" name="bottom"/>
    </contour>
  </outline>
</glyph>
<glyph name="D" format="1">
  <advance width="469"/>
  <unicode hex="0044"/>
  <outline>
    <contour>
      <point x="427" y="144" type="line" smooth="yes"/>
      <point x="427" y="56"/>
      <point x="371" y="0"/>
      <point x="279" y="0" type="curve" smooth="yes"/>
      <point x="46" y="0" type="line"/>
      <point x="46" y="764" type="line"/>
      <point x="279" y="764" type="line" smooth="yes"/>
      <point x="372" y="764"/>
      <point x="427" y="707"/>
      <point x="427" y="619" type="curve" smooth="yes"/>
    </contour>
    <contour>
      <point x="312" y="163" type="curve" smooth="yes"/>
      <point x="312" y="602" type="line" smooth="yes"/>
      <point x="312" y="643"/>
      <point x="286" y="666"/>
      <point x="245" y="666" type="curve" smooth="yes"/>
      <point x="160" y="666" type="line"/>
      <point x="160" y="98" type="line"/>
      <point x="242" y="98" type="line" smooth="yes"/>
      <point x="288" y="98"/>
      <point x="312" y="123"/>
    </contour>
    <contour>
      <point x="234.5" y="764" type="move" name="top"/>
    </contour>
  </outline>
</glyph>
<glyph name="H" format="1">
  <advance width="475"/>
  <unicode hex="0048"/>
  <outline>
    <contour>
      <point x="430" y="0" type="line"/>
      <point x="315" y="0" type="line"/>
      <point x="315" y="343" type="line"/>
      <point x="160" y="343" type="line"/>
      <point x="160" y="0" type="line"/>
      <point x="46" y="0" type="line"/>
      <point x="46" y="764" type="line"/>
      <point x="160" y="764" type="line"/>
      <point x="160" y="449" type="line"/>
      <point x="315" y="449" type="line"/>
      <point x="315" y="764" type="line"/>
      <point x="430" y="764" type="line"/>
    </contour>
    <contour>
      <point x="237.5" y="764" type="move" name="top"/>
    </contour>
  </outline>
</glyph>
<glyph name="J" format="1">
  <advance width="434"/>
  <unicode hex="004A"/>
  <outline>
    <contour>
      <point x="389" y="70" type="line" smooth="yes"/>
      <point x="389" y="25"/>
      <point x="364" y="0"/>
      <point x="319" y="0" type="curve" smooth="yes"/>
      <point x="102" y="0" type="line" smooth="yes"/>
      <point x="58" y="0"/>
      <point x="33" y="25"/>
      <point x="33" y="70" type="curve" smooth="yes"/>
      <point x="33" y="258" type="line"/>
      <point x="147" y="258" type="line"/>
      <point x="147" y="98" type="line"/>
      <point x="275" y="98" type="line"/>
      <point x="275" y="764" type="line"/>
      <point x="389" y="764" type="line"/>
    </contour>
    <contour>
      <point x="332" y="764" type="move" name="top"/>
    </contour>
  </outline>
</glyph>
<glyph name="L" format="1">
  <advance width="368"/>
  <unicode hex="004C"/>
  <outline>
    <contour>
      <point x="346" y="0" type="line"/>
      <point x="46" y="0" type="line"/>
      <point x="46" y="764" type="line"/>
      <point x="160" y="764" type="line"/>
      <point x="160" y="102" type="line"/>
      <point x="346" y="102" type="line"/>
    </contour>
    <contour>
      <point x="207" y="525" type="move" name="caron.vert"/>
    </contour>
    <contour>
      <point x="184" y="0" type="move" name="bottom"/>
    </contour>
    <contour>
      <point x="103" y="764" type="move" name="top"/>
    </contour>
  </outline>
</glyph>
<glyph name="N" format="1">
  <advance width="479"/>
  <unicode hex="004E"/>
  <outline>
    <contour>
      <point x="433" y="0" type="line"/>
      <point x="333" y="0" type="line"/>
      <point x="150" y="481" type="line"/>
      <point x="150" y="481"/>
      <point x="157" y="446"/>
      <point x="157" y="426" type="curve" smooth="yes"/>
      <point x="157" y="0" type="line"/>
      <point x="46" y="0" type="line"/>
      <point x="46" y="764" type="line"/>
      <point x="146" y="764" type="line"/>
      <point x="329" y="293" type="line"/>
      <point x="329" y="293"/>
      <point x="322" y="328"/>
      <point x="322" y="348" type="curve" smooth="yes"/>
      <point x="322" y="764" type="line"/>
      <point x="433" y="764" type="line"/>
    </contour>
    <contour>
      <point x="239.5" y="764" type="move" name="top"/>
    </contour>
    <contour>
      <point x="239" y="0" type="move" name="bottom"/>
    </contour>
  </outline>
</glyph>
<glyph name="P" format="1">
  <advance width="450"/>
  <unicode hex="0050"/>
  <outline>
    <contour>
      <point x="415" y="348" type="line" smooth="yes"/>
      <point x="415" y="303"/>
      <point x="390" y="277"/>
      <point x="345" y="277" type="curve" smooth="yes"/>
      <point x="160" y="277" type="line"/>
      <point x="160" y="0" type="line"/>
      <point x="46" y="0" type="line"/>
      <point x="46" y="764" type="line"/>
      <point x="345" y="764" type="line" smooth="yes"/>
      <point x="390" y="764"/>
      <point x="415" y="739"/>
      <point x="415" y="694" type="curve" smooth="yes"/>
    </contour>
    <contour>
      <point x="300" y="375" type="line"/>
      <point x="300" y="666" type="line"/>
      <point x="160" y="666" type="line"/>
      <point x="160" y="375" type="line"/>
    </contour>
  </outline>
</glyph>
<glyph name="S" format="1">
  <advance width="457"/>
  <unicode hex="0053"/>
  <outline>
    <contour>
      <point x="412" y="70" type="line" smooth="yes"/>
      <point x="412" y="25"/>
      <point x="387" y="0"/>
      <point x="343" y="0" type="curve" smooth="yes"/>
      <point x="113" y="0" type="line" smooth="yes"/>
      <point x="69" y="0"/>
      <point x="44" y="25"/>
      <point x="44" y="70" type="curve" smooth="yes"/>
      <point x="44" y="252" type="line"/>
      <point x="158" y="252" type="line"/>
      <point x="158" y="96" type="line"/>
      <point x="298" y="96" type="line"/>
      <point x="298" y="246" type="line"/>
      <point x="69" y="463" type="line" smooth="yes"/>
      <point x="50" y="481"/>
      <point x="44" y="495"/>
      <point x="44" y="524" type="curve" smooth="yes"/>
      <point x="44" y="694" type="line" smooth="yes"/>
      <point x="44" y="739"/>
      <point x="69" y="764"/>
      <point x="113" y="764" type="curve" smooth="yes"/>
      <point x="343" y="764" type="line" smooth="yes"/>
      <point x="387" y="764"/>
      <point x="412" y="739"/>
      <point x="412" y="695" type="curve" smooth="yes"/>
      <point x="412" y="524" type="line"/>
      <point x="298" y="524" type="line"/>
      <point x="298" y="668" type="line"/>
      <point x="158" y="668" type="line"/>
      <point x="158" y="530" type="line"/>
      <point x="387" y="314" type="line" smooth="yes"/>
      <point x="406" y="296"/>
      <point x="412" y="281"/>
      <point x="412" y="252" type="curve" smooth="yes"/>
    </contour>
    <contour>
      <point x="228" y="0" type="move" name="bottom"/>
    </contour>
    <contour>
      <point x="228.5" y="764" type="move" name="top"/>
    </contour>
  </outline>
</glyph>
<glyph name="U" format="1">
  <advance width="474"/>
  <unicode hex="0055"/>
  <outline>
    <contour>
      <point x="428" y="70" type="line" smooth="yes"/>
      <point x="428" y="25"/>
      <point x="403" y="0"/>
      <point x="358" y="0" type="curve" smooth="yes"/>
      <point x="115" y="0" type="line" smooth="yes"/>
      <point x="70" y="0"/>
      <point x="46" y="25"/>
      <point x="46" y="70" type="curve" smooth="yes"/>
      <point x="46" y="764" type="line"/>
      <point x="160" y="764" type="line"/>
      <point x="160" y="98" type="line"/>
      <point x="314" y="98" type="line"/>
      <point x="314" y="764" type="line"/>
      <point x="428" y="764" type="line"/>
    </contour>
    <contour>
      <point x="300" y="5" type="move" name="ogonek"/>
    </contour>
    <contour>
      <point x="237.0" y="764.0" type="move" name="top"/>
    </contour>
  </outline>
</glyph>
<glyph name="a" format="1">
  <advance width="398"/>
  <unicode hex="0061"/>
  <outline>
    <contour>
      <point x="358" y="0" type="line"/>
      <point x="251" y="0" type="line"/>
      <point x="251" y="17" type="line"/>
      <point x="133" y="2" type="line" smooth="yes"/>
      <point x="119" y="0"/>
      <point x="109" y="-2"/>
      <point x="99" y="-2" type="curve" smooth="yes"/>
      <point x="58" y="-2"/>
      <point x="38" y="18"/>
      <point x="38" y="58" type="curve" smooth="yes"/>
      <point x="38" y="236" type="line" smooth="yes"/>
      <point x="38" y="278"/>
      <point x="58" y="297"/>
      <point x="101" y="297" type="curve" smooth="yes"/>
      <point x="252" y="297" type="line"/>
      <point x="252" y="410" type="line"/>
      <point x="145" y="410" type="line"/>
      <point x="145" y="340" type="line"/>
      <point x="44" y="340" type="line"/>
      <point x="44" y="432" type="line" smooth="yes"/>
      <point x="44" y="473"/>
      <point x="64" y="493"/>
      <point x="107" y="493" type="curve" smooth="yes"/>
      <point x="296" y="493" type="line" smooth="yes"/>
      <point x="338" y="493"/>
      <point x="358" y="473"/>
      <point x="358" y="432" type="curve" smooth="yes"/>
    </contour>
    <contour>
      <point x="252" y="89" type="line"/>
      <point x="252" y="221" type="line"/>
      <point x="145" y="221" type="line"/>
      <point x="145" y="85" type="line"/>
    </contour>
    <contour>
      <point x="199.0" y="493" type="move" name="top"/>
    </contour>
    <contour>
      <point x="352" y="1" type="move" name="ogonek"/>
    </contour>
  </outline>
</glyph>
<glyph name="d" format="1">
  <advance width="408"/>
  <unicode hex="0064"/>
  <outline>
    <contour>
      <point x="367" y="0" type="line"/>
      <point x="256" y="0" type="line"/>
      <point x="256" y="17" type="line"/>
      <point x="171" y="2" type="line" smooth="yes"/>
      <point x="158" y="0"/>
      <point x="141" y="-3"/>
      <point x="129" y="-3" type="curve" smooth="yes"/>
      <point x="73" y="-3"/>
      <point x="39" y="32"/>
      <point x="39" y="89" type="curve" smooth="yes"/>
      <point x="39" y="394" type="line" smooth="yes"/>
      <point x="39" y="454"/>
      <point x="77" y="493"/>
      <point x="142" y="493" type="curve" smooth="yes"/>
      <point x="256" y="493" type="line"/>
      <point x="256" y="764" type="line"/>
      <point x="367" y="764" type="line"/>
    </contour>
    <contour>
      <point x="256" y="96" type="line"/>
      <point x="256" y="400" type="line"/>
      <point x="187" y="400" type="line" smooth="yes"/>
      <point x="161" y="400"/>
      <point x="150" y="388"/>
      <point x="150" y="363" type="curve" smooth="yes"/>
      <point x="150" y="127" type="line" smooth="yes"/>
      <point x="150" y="104"/>
      <point x="161" y="91"/>
      <point x="185" y="91" type="curve" smooth="yes"/>
      <point x="190" y="91"/>
      <point x="200" y="92"/>
      <point x="206" y="92" type="curve" smooth="yes"/>
    </contour>
    <contour>
      <point x="407" y="525" type="move" name="caron.vert"/>
    </contour>
  </outline>
</glyph>
<glyph name="h" format="1">
  <advance width="409"/>
  <unicode hex="0068"/>
  <outline>
    <contour>
      <point x="369" y="0" type="line"/>
      <point x="257" y="0" type="line"/>
      <point x="257" y="400" type="line"/>
      <point x="152" y="398" type="line"/>
      <point x="152" y="0" type="line"/>
      <point x="40" y="0" type="line"/>
      <point x="40" y="764" type="line"/>
      <point x="152" y="764" type="line"/>
      <point x="152" y="475" type="line"/>
      <point x="272" y="491" type="line"/>
      <point x="284" y="494"/>
      <point x="297" y="495"/>
      <point x="308" y="495" type="curve" smooth="yes"/>
      <point x="348" y="495"/>
      <point x="369" y="474"/>
      <point x="369" y="435" type="curve" smooth="yes"/>
    </contour>
    <contour>
      <point x="96" y="764" type="move" name="top"/>
    </contour>
  </outline>
</glyph>
<glyph name="k" format="1">
  <advance width="377"/>
  <unicode hex="006B"/>
  <outline>
    <contour>
      <point x="369" y="0" type="line"/>
      <point x="250" y="0" type="line"/>
      <point x="152" y="226" type="line"/>
      <point x="152" y="0" type="line"/>
      <point x="40" y="0" type="line"/>
      <point x="40" y="764" type="line"/>
      <point x="152" y="764" type="line"/>
      <point x="152" y="305" type="line"/>
      <point x="240" y="493" type="line"/>
      <point x="357" y="493" type="line"/>
      <point x="357" y="491" type="line"/>
      <point x="243" y="267" type="line"/>
      <point x="369" y="2" type="line"/>
    </contour>
    <contour>
      <point x="197" y="0" type="move" name="bottom"/>
    </contour>
  </outline>
</glyph>
<glyph name="r" format="1">
  <advance width="374"/>
  <unicode hex="0072"/>
  <outline>
    <contour>
      <point x="351" y="287" type="line"/>
      <point x="240" y="287" type="line"/>
      <point x="240" y="400" type="line"/>
      <point x="152" y="398" type="line"/>
      <point x="152" y="0" type="line"/>
      <point x="40" y="0" type="line"/>
      <point x="40" y="493" type="line"/>
      <point x="152" y="493" type="line"/>
      <point x="152" y="475" type="line"/>
      <point x="254" y="491" type="line"/>
      <point x="266" y="494"/>
      <point x="280" y="495"/>
      <point x="290" y="495" type="curve" smooth="yes"/>
      <point x="331" y="495"/>
      <point x="351" y="474"/>
      <point x="351" y="435" type="curve" smooth="yes"/>
    </contour>
    <contour>
      <point x="196" y="493" type="move" name="top"/>
    </contour>
    <contour>
      <point x="96" y="0" type="move" name="bottom"/>
    </contour>
  </outline>
</glyph>
<glyph name="t" format="1">
  <advance width="275"/>
  <unicode hex="0074"/>
  <outline>
    <contour>
      <point x="253" y="0" type="line"/>
      <point x="129" y="0" type="line" smooth="yes"/>
      <point x="87" y="0"/>
      <point x="67" y="20"/>
      <point x="67" y="61" type="curve" smooth="yes"/>
      <point x="67" y="398" type="line"/>
      <point x="14" y="398" type="line"/>
      <point x="14" y="493" type="line"/>
      <point x="67" y="493" type="line"/>
      <point x="67" y="627" type="line"/>
      <point x="178" y="627" type="line"/>
      <point x="178" y="493" type="line"/>
      <point x="250" y="493" type="line"/>
      <point x="250" y="398" type="line"/>
      <point x="178" y="398" type="line"/>
      <point x="178" y="95" type="line"/>
      <point x="253" y="95" type="line"/>
    </contour>
    <contour>
      <point x="168" y="0" type="move" name="bottom"/>
    </contour>
    <contour>
      <point x="220" y="525" type="move" name="caron.vert"/>
    </contour>
  </outline>
</glyph>
<glyph name="u" format="1">
  <advance width="409"/>
  <unicode hex="0075"/>
  <outline>
    <contour>
      <point x="368" y="0" type="line"/>
      <point x="257" y="0" type="line"/>
      <point x="257" y="17" type="line"/>
      <point x="139" y="1" type="line" smooth="yes"/>
      <point x="126" y="-1"/>
      <point x="112" y="-3"/>
      <point x="101" y="-3" type="curve" smooth="yes"/>
      <point x="60" y="-3"/>
      <point x="40" y="18"/>
      <point x="40" y="58" type="curve" smooth="yes"/>
      <point x="40" y="493" type="line"/>
      <point x="151" y="493" type="line"/>
      <point x="151" y="93" type="line"/>
      <point x="257" y="95" type="line"/>
      <point x="257" y="493" type="line"/>
      <point x="368" y="493" type="line"/>
    </contour>
    <contour>
      <point x="204.5" y="493" type="move" name="top"/>
    </contour>
    <contour>
      <point x="366" y="5" type="move" name="ogonek"/>
    </contour>
  </outline>
</glyph>
<glyph name="v" format="1">
  <advance width="389"/>
  <unicode hex="0076"/>
  <outline>
    <contour>
      <point x="374" y="493" type="line"/>
      <point x="248" y="-1" type="line"/>
      <point x="141" y="-1" type="line"/>
      <point x="15" y="493" type="line"/>
      <point x="130" y="493" type="line"/>
      <point x="195" y="169" type="line"/>
      <point x="260" y="493" type="line"/>
    </contour>
  </outline>
</glyph>
<glyph name="w" format="1">
  <advance width="543"/>
  <unicode hex="0077"/>
  <outline>
    <contour>
      <point x="528" y="493" type="line"/>
      <point x="422" y="-1" type="line"/>
      <point x="324" y="-1" type="line"/>
      <point x="271" y="272" type="line"/>
      <point x="218" y="-1" type="line"/>
      <point x="121" y="-1" type="line"/>
      <point x="15" y="493" type="line"/>
      <point x="122" y="493" type="line"/>
      <point x="176" y="178" type="line"/>
      <point x="229" y="493" type="line"/>
      <point x="314" y="493" type="line"/>
      <point x="367" y="178" type="line"/>
      <point x="421" y="493" type="line"/>
    </contour>
    <contour>
      <point x="271.5" y="493" type="move" name="top"/>
    </contour>
  </outline>
</glyph>
<glyph name="z" format="1">
  <advance width="347"/>
  <unicode hex="007A"/>
  <outline>
    <contour>
      <point x="319" y="0" type="line"/>
      <point x="22" y="0" type="line"/>
      <point x="22" y="66" type="line"/>
      <point x="186" y="402" type="line"/>
      <point x="35" y="402" type="line"/>
      <point x="35" y="493" type="line"/>
      <point x="319" y="493" type="line"/>
      <point x="319" y="427" type="line"/>
      <point x="154" y="91" type="line"/>
      <point x="319" y="91" type="line"/>
    </contour>
    <contour>
      <point x="182" y="493" type="move" name="top"/>
    </contour>
  </outline>
</glyph>
<glyph name="braceleft" format="1">
  <advance width="371"/>
  <unicode hex="007B"/>
  <outline>
    <contour>
      <point x="336" y="-121" type="line"/>
      <point x="239" y="-121" type="line" smooth="yes"/>
      <point x="162" y="-121"/>
      <point x="122" y="-76"/>
      <point x="122" y="0" type="curve" smooth="yes"/>
      <point x="122" y="234" type="line"/>
      <point x="26" y="328" type="line"/>
      <point x="26" y="346" type="line"/>
      <point x="122" y="440" type="line"/>
      <point x="122" y="643" type="line" smooth="yes"/>
      <point x="122" y="719"/>
      <point x="162" y="764"/>
      <point x="239" y="764" type="curve" smooth="yes"/>
      <point x="336" y="764" type="line"/>
      <point x="336" y="663" type="line"/>
      <point x="274" y="663" type="line" smooth="yes"/>
      <point x="249" y="663"/>
      <point x="235" y="649"/>
      <point x="235" y="624" type="curve" smooth="yes"/>
      <point x="235" y="451" type="line" smooth="yes"/>
      <point x="235" y="414"/>
      <point x="231" y="404"/>
      <point x="204" y="381" type="curve" smooth="yes"/>
      <point x="151" y="337" type="line"/>
      <point x="204" y="292" type="line" smooth="yes"/>
      <point x="230" y="270"/>
      <point x="235" y="260"/>
      <point x="235" y="223" type="curve" smooth="yes"/>
      <point x="235" y="21" type="line" smooth="yes"/>
      <point x="235" y="-5"/>
      <point x="250" y="-20"/>
      <point x="276" y="-20" type="curve" smooth="yes"/>
      <point x="336" y="-20" type="line"/>
    </contour>
  </outline>
</glyph>
<glyph name="sterling" format="1">
  <advance width="460"/>
  <unicode hex="00A3"/>
  <outline>
    <contour>
      <point x="428" y="0" type="line"/>
      <point x="24" y="0" type="line"/>
      <point x="24" y="98" type="line"/>
      <point x="75" y="98" type="line"/>
      <point x="75" y="320" type="line"/>
      <point x="24" y="320" type="line"/>
      <point x="24" y="416" type="line"/>
      <point x="75" y="416" type="line"/>
      <point x="75" y="694" type="line" smooth="yes"/>
      <point x="75" y="739"/>
      <point x="100" y="764"/>
      <point x="145" y="764" type="curve" smooth="yes"/>
      <point x="354" y="764" type="line" smooth="yes"/>
      <point x="398" y="764"/>
      <point x="423" y="740"/>
      <point x="423" y="695" type="curve" smooth="yes"/>
      <point x="423" y="529" type="line"/>
      <point x="311" y="529" type="line"/>
      <point x="311" y="667" type="line"/>
      <point x="187" y="667" type="line"/>
      <point x="187" y="416" type="line"/>
      <point x="323" y="416" type="line"/>
      <point x="323" y="320" type="line"/>
      <point x="187" y="320" type="line"/>
      <point x="187" y="98" type="line"/>
      <point x="428" y="98" type="line"/>
    </contour>
  </outline>
</glyph>
<glyph name="copyright" format="1">
  <advance width="583"/>
  <unicode hex="00A9"/>
  <outline>
    <contour>
      <point x="538" y="44" type="line" smooth="yes"/>
      <point x="538" y="16"/>
      <point x="522" y="0"/>
      <point x="494" y="0" type="curve" smooth="yes"/>
      <point x="89" y="0" type="line" smooth="yes"/>
      <point x="60" y="0"/>
      <point x="45" y="16"/>
      <point x="45" y="44" type="curve" smooth="yes"/>
      <point x="45" y="720" type="line" smooth="yes"/>
      <point x="45" y="748"/>
      <point x="60" y="764"/>
      <point x="89" y="764" type="curve" smooth="yes"/>
      <point x="494" y="764" type="line" smooth="yes"/>
      <point x="522" y="764"/>
      <point x="538" y="748"/>
      <point x="538" y="720" type="curve" smooth="yes"/>
    </contour>
    <contour>
      <point x="486" y="50" type="line"/>
      <point x="486" y="714" type="line"/>
      <point x="97" y="714" type="line"/>
      <point x="97" y="50" type="line"/>
    </contour>
    <contour>
      <point x="403" y="214" type="line" smooth="yes"/>
      <point x="403" y="185"/>
      <point x="386" y="168"/>
      <point x="357" y="168" type="curve" smooth="yes"/>
      <point x="224" y="168" type="line" smooth="yes"/>
      <point x="195" y="168"/>
      <point x="178" y="185"/>
      <point x="178" y="214" type="curve" smooth="yes"/>
      <point x="178" y="552" type="line" smooth="yes"/>
      <point x="178" y="581"/>
      <point x="195" y="599"/>
      <point x="224" y="599" type="curve" smooth="yes"/>
      <point x="357" y="599" type="line" smooth="yes"/>
      <point x="386" y="599"/>
      <point x="403" y="581"/>
      <point x="403" y="552" type="curve" smooth="yes"/>
      <point x="403" y="445" type="line"/>
      <point x="324" y="445" type="line"/>
      <point x="324" y="527" type="line"/>
      <point x="257" y="527" type="line"/>
      <point x="257" y="239" type="line"/>
      <point x="324" y="239" type="line"/>
      <point x="324" y="326" type="line"/>
      <point x="403" y="326" type="line"/>
    </contour>
  </outline>
</glyph>
<glyph name="paragraph" format="1">
  <advance width="508"/>
  <unicode hex="00B6"/>
  <outline>
    <contour>
      <point x="462" y="0" type="line"/>
      <point x="358" y="0" type="line"/>
      <point x="358" y="274" type="line"/>
      <point x="300" y="274" type="line"/>
      <point x="300" y="0" type="line"/>
      <point x="196" y="0" type="line"/>
      <point x="196" y="274" type="line"/>
      <point x="107" y="274" type="line" smooth="yes"/>
      <point x="62" y="274"/>
      <point x="38" y="299"/>
      <point x="38" y="343" type="curve" smooth="yes"/>
      <point x="38" y="695" type="line" smooth="yes"/>
      <point x="38" y="740"/>
      <point x="62" y="764"/>
      <point x="107" y="764" type="curve" smooth="yes"/>
      <point x="462" y="764" type="line"/>
    </contour>
    <contour>
      <point x="358" y="375" type="line"/>
      <point x="358" y="663" type="line"/>
      <point x="235" y="663" type="line"/>
      <point x="235" y="375" type="line"/>
    </contour>
  </outline>
</glyph>
<glyph name="periodcentered" format="1">
  <advance width="195"/>
  <unicode hex="00B7"/>
  <unicode hex="2219"/>
  <outline>
    <contour>
      <point x="159" y="236" type="line"/>
      <point x="37" y="236" type="line"/>
      <point x="37" y="362" type="line"/>
      <point x="159" y="362" type="line"/>
    </contour>
  </outline>
</glyph>
<glyph name="cedilla" format="1">
  <advance width="408"/>
  <unicode hex="00B8"/>
  <outline>
    <contour>
      <point x="311" y="-142" type="line" smooth="yes"/>
      <point x="311" y="-174"/>
      <point x="295" y="-189"/>
      <point x="264" y="-189" type="curve" smooth="yes"/>
      <point x="142" y="-189" type="line" smooth="yes"/>
      <point x="110" y="-189"/>
      <point x="95" y="-174"/>
      <point x="95" y="-142" type="curve" smooth="yes"/>
      <point x="95" y="-89" type="line"/>
      <point x="171" y="-89" type="line"/>
      <point x="171" y="-130" type="line"/>
      <point x="235" y="-130" type="line"/>
      <point x="235" y="-89" type="line"/>
      <point x="192" y="-70" type="line" smooth="yes"/>
      <point x="170" y="-60"/>
      <point x="164" y="-50"/>
      <point x="164" y="-24" type="curve" smooth="yes"/>
      <point x="164" y="10" type="line"/>
      <point x="238" y="10" type="line"/>
      <point x="238" y="-20" type="line"/>
      <point x="283" y="-43" type="line" smooth="yes"/>
      <point x="307" y="-55"/>
      <point x="311" y="-64"/>
      <point x="311" y="-90" type="curve" smooth="yes"/>
    </contour>
  </outline>
</glyph>
<glyph name="guillemotright" format="1">
  <advance width="506"/>
  <unicode hex="00BB"/>
  <outline>
    <contour>
      <point x="474" y="262" type="line"/>
      <point x="351" y="76" type="line"/>
      <point x="228" y="76" type="line"/>
      <point x="228" y="80" type="line"/>
      <point x="355" y="271" type="line"/>
      <point x="228" y="462" type="line"/>
      <point x="228" y="466" type="line"/>
      <point x="351" y="466" type="line"/>
      <point x="474" y="280" type="line"/>
    </contour>
    <contour>
      <point x="285" y="262" type="line"/>
      <point x="161" y="76" type="line"/>
      <point x="39" y="76" type="line"/>
      <point x="39" y="80" type="line"/>
      <point x="166" y="271" type="line"/>
      <point x="39" y="462" type="line"/>
      <point x="39" y="466" type="line"/>
      <point x="161" y="466" type="line"/>
      <point x="285" y="280" type="line"/>
    </contour>
  </outline>
</glyph>
<glyph name="questiondown" format="1">
  <advance width="424"/>
  <unicode hex="00BF"/>
  <outline>
    <contour>
      <point x="280" y="647" type="line"/>
      <point x="165" y="647" type="line"/>
      <point x="165" y="764" type="line"/>
      <point x="280" y="764" type="line"/>
    </contour>
    <contour>
      <point x="389" y="70" type="line" smooth="yes"/>
      <point x="389" y="25"/>
      <point x="364" y="0"/>
      <point x="319" y="0" type="curve" smooth="yes"/>
      <point x="106" y="0" type="line" smooth="yes"/>
      <point x="62" y="0"/>
      <point x="36" y="25"/>
      <point x="36" y="70" type="curve" smooth="yes"/>
      <point x="36" y="228" type="line" smooth="yes"/>
      <point x="36" y="257"/>
      <point x="41" y="272"/>
      <point x="56" y="292" type="curve" smooth="yes"/>
      <point x="167" y="442" type="line"/>
      <point x="167" y="586" type="line"/>
      <point x="278" y="586" type="line"/>
      <point x="278" y="456" type="line" smooth="yes"/>
      <point x="278" y="426"/>
      <point x="274" y="410"/>
      <point x="259" y="390" type="curve" smooth="yes"/>
      <point x="148" y="241" type="line"/>
      <point x="148" y="95" type="line"/>
      <point x="278" y="95" type="line"/>
      <point x="278" y="234" type="line"/>
      <point x="389" y="234" type="line"/>
    </contour>
  </outline>
</glyph>
<glyph name="Oslash" format="1">
  <advance width="477"/>
  <unicode hex="00D8"/>
  <outline>
    <contour>
      <point x="431" y="70" type="line" smooth="yes"/>
      <point x="431" y="25"/>
      <point x="406" y="0"/>
      <point x="362" y="0" type="curve" smooth="yes"/>
      <point x="192" y="0" type="line"/>
      <point x="171" y="-75" type="line"/>
      <point x="55" y="-75" type="line"/>
      <point x="55" y="-69" type="line"/>
      <point x="77" y="8" type="line"/>
      <point x="57" y="19"/>
      <point x="46" y="40"/>
      <point x="46" y="70" type="curve" smooth="yes"/>
      <point x="46" y="694" type="line" smooth="yes"/>
      <point x="46" y="739"/>
      <point x="70" y="764"/>
      <point x="114" y="764" type="curve" smooth="yes"/>
      <point x="289" y="764" type="line"/>
      <point x="310" y="839" type="line"/>
      <point x="427" y="839" type="line"/>
      <point x="427" y="833" type="line"/>
      <point x="404" y="753" type="line"/>
      <point x="422" y="742"/>
      <point x="431" y="721"/>
      <point x="431" y="694" type="curve" smooth="yes"/>
    </contour>
    <contour>
      <point x="317" y="98" type="line"/>
      <point x="317" y="666" type="line"/>
      <point x="160" y="666" type="line"/>
      <point x="160" y="98" type="line"/>
    </contour>
  </outline>
</glyph>
<glyph name="dotlessi" format="1">
  <advance width="196"/>
  <unicode hex="0131"/>
  <outline>
    <contour>
      <point x="153" y="0" type="line"/>
      <point x="43" y="0" type="line"/>
      <point x="43" y="493" type="line"/>
      <point x="153" y="493" type="line"/>
    </contour>
    <contour>
      <point x="98.0" y="493" type="move" name="top"/>
    </contour>
  </outline>
</glyph>
<glyph name="Lslash" format="1">
  <advance width="388"/>
  <unicode hex="0141"/>
  <outline>
    <contour>
      <point x="367" y="0" type="line"/>
      <point x="66" y="0" type="line"/>
      <point x="66" y="241" type="line"/>
      <point x="27" y="214" type="line"/>
      <point x="21" y="214" type="line"/>
      <point x="21" y="325" type="line"/>
      <point x="66" y="354" type="line"/>
      <point x="66" y="764" type="line"/>
      <point x="179" y="764" type="line"/>
      <point x="179" y="432" type="line"/>
      <point x="257" y="484" type="line"/>
      <point x="263" y="484" type="line"/>
      <point x="263" y="374" type="line"/>
      <point x="179" y="319" type="line"/>
      <point x="179" y="103" type="line"/>
      <point x="367" y="103" type="line"/>
    </contour>
  </outline>
</glyph>
<glyph name="oe" format="1">
  <advance width="603"/>
  <unicode hex="0153"/>
  <outline>
    <contour>
      <point x="563" y="61" type="line" smooth="yes"/>
      <point x="563" y="20"/>
      <point x="542" y="0"/>
      <point x="501" y="0" type="curve" smooth="yes"/>
      <point x="103" y="0" type="line" smooth="yes"/>
      <point x="60" y="0"/>
      <point x="40" y="20"/>
      <point x="40" y="61" type="curve" smooth="yes"/>
      <point x="40" y="432" type="line" smooth="yes"/>
      <point x="40" y="473"/>
      <point x="60" y="493"/>
      <point x="103" y="493" type="curve" smooth="yes"/>
      <point x="501" y="493" type="line" smooth="yes"/>
      <point x="542" y="493"/>
      <point x="563" y="473"/>
      <point x="563" y="432" type="curve" smooth="yes"/>
      <point x="563" y="251" type="line"/>
      <point x="532" y="220" type="line"/>
      <point x="355" y="220" type="line"/>
      <point x="355" y="82" type="line"/>
      <point x="456" y="82" type="line"/>
      <point x="456" y="164" type="line"/>
      <point x="563" y="164" type="line"/>
    </contour>
    <contour>
      <point x="456" y="293" type="line"/>
      <point x="456" y="411" type="line"/>
      <point x="355" y="411" type="line"/>
      <point x="355" y="293" type="line"/>
    </contour>
    <contour>
      <point x="253" y="91" type="line"/>
      <point x="253" y="402" type="line"/>
      <point x="149" y="402" type="line"/>
      <point x="149" y="91" type="line"/>
    </contour>
  </outline>
</glyph>
<glyph name="caron" format="1">
  <advance width="408"/>
  <unicode hex="02C7"/>
  <outline>
    <contour>
      <point x="344" y="653" type="line"/>
      <point x="243" y="526" type="line"/>
      <point x="166" y="526" type="line"/>
      <point x="65" y="653" type="line"/>
      <point x="65" y="657" type="line"/>
      <point x="137" y="657" type="line"/>
      <point x="204" y="601" type="line"/>
      <point x="271" y="657" type="line"/>
      <point x="344" y="657" type="line"/>
    </contour>
  </outline>
</glyph>
<glyph name="ogonek" format="1">
  <advance width="408"/>
  <unicode hex="02DB"/>
  <outline>
    <contour>
      <point x="307" y="-189" type="line"/>
      <point x="140" y="-189" type="line" smooth="yes"/>
      <point x="109" y="-189"/>
      <point x="93" y="-174"/>
      <point x="93" y="-142" type="curve" smooth="yes"/>
      <point x="93" y="-90" type="line" smooth="yes"/>
      <point x="93" y="-64"/>
      <point x="100" y="-55"/>
      <point x="115" y="-40" type="curve" smooth="yes"/>
      <point x="168" y="10" type="line"/>
      <point x="267" y="10" type="line"/>
      <point x="267" y="5" type="line"/>
      <point x="178" y="-81" type="line"/>
      <point x="178" y="-124" type="line"/>
      <point x="307" y="-124" type="line"/>
    </contour>
  </outline>
</glyph>
<glyph name="gravecmb" format="1">
  <advance width="0"/>
  <unicode hex="0300"/>
  <outline>
    <contour>
      <point x="72" y="526" type="line"/>
      <point x="-10" y="526" type="line"/>
      <point x="-152" y="655" type="line"/>
      <point x="-152" y="659" type="line"/>
      <point x="-13" y="659" type="line"/>
      <point x="72" y="530" type="line"/>
    </contour>
    <contour>
      <point x="0" y="493" type="move" name="_top"/>
    </contour>
  </outline>
</glyph>
<glyph name="tildecmb" format="1">
  <advance width="0"/>
  <unicode hex="0303"/>
  <outline>
    <contour>
      <point x="129.0" y="571" type="line" smooth="yes"/>
      <point x="129.0" y="541"/>
      <point x="112.0" y="525"/>
      <point x="83.0" y="525" type="curve" smooth="yes"/>
      <point x="69.0" y="525"/>
      <point x="55.0" y="528"/>
      <point x="40.0" y="534" type="curve" smooth="yes"/>
      <point x="-52.0" y="569" type="line"/>
      <point x="-52.0" y="526" type="line"/>
      <point x="-129.0" y="526" type="line"/>
      <point x="-129.0" y="603" type="line" smooth="yes"/>
      <point x="-129.0" y="633"/>
      <point x="-112.0" y="649"/>
      <point x="-83.0" y="649" type="curve" smooth="yes"/>
      <point x="-69.0" y="649"/>
      <point x="-56.0" y="647"/>
      <point x="-39.0" y="640" type="curve" smooth="yes"/>
      <point x="51.0" y="605" type="line"/>
      <point x="51.0" y="648" type="line"/>
      <point x="129.0" y="648" type="line"/>
    </contour>
    <contour>
      <point x="0" y="493" type="move" name="_top"/>
    </contour>
  </outline>
</glyph>
<glyph name="macroncmb" format="1">
  <advance width="0"/>
  <unicode hex="0304"/>
  <outline>
    <contour>
      <point x="128.0" y="535" type="line"/>
      <point x="-128.0" y="535" type="line"/>
      <point x="-128.0" y="612" type="line"/>
      <point x="128.0" y="612" type="line"/>
    </contour>
    <contour>
      <point x="0" y="493" type="move" name="_top"/>
    </contour>
  </outline>
</glyph>
<glyph name="brevecmb" format="1">
  <advance width="0"/>
  <unicode hex="0306"/>
  <outline>
    <contour>
      <point x="120.0" y="585" type="line" smooth="yes"/>
      <point x="120.0" y="546"/>
      <point x="100.0" y="526"/>
      <point x="61.0" y="526" type="curve" smooth="yes"/>
      <point x="-60.0" y="526" type="line" smooth="yes"/>
      <point x="-99.0" y="526"/>
      <point x="-119.0" y="546"/>
      <point x="-119.0" y="585" type="curve" smooth="yes"/>
      <point x="-119.0" y="652" type="line"/>
      <point x="-38.0" y="652" type="line"/>
      <point x="-38.0" y="595" type="line"/>
      <point x="39.0" y="595" type="line"/>
      <point x="39.0" y="652" type="line"/>
      <point x="120.0" y="652" type="line"/>
    </contour>
    <contour>
      <point x="0" y="493" type="move" name="_top"/>
    </contour>
  </outline>
</glyph>
<glyph name="ringcmb" format="1">
  <advance width="0"/>
  <unicode hex="030A"/>
  <outline>
    <contour>
      <point x="112.0" y="577" type="line" smooth="yes"/>
      <point x="112.0" y="543"/>
      <point x="94.0" y="526"/>
      <point x="60.0" y="526" type="curve" smooth="yes"/>
      <point x="-60.0" y="526" type="line" smooth="yes"/>
      <point x="-94.0" y="526"/>
      <point x="-111.0" y="543"/>
      <point x="-111.0" y="577" type="curve" smooth="yes"/>
      <point x="-111.0" y="675" type="line" smooth="yes"/>
      <point x="-111.0" y="709"/>
      <point x="-94.0" y="726"/>
      <point x="-60.0" y="726" type="curve" smooth="yes"/>
      <point x="60.0" y="726" type="line" smooth="yes"/>
      <point x="94.0" y="726"/>
      <point x="112.0" y="709"/>
      <point x="112.0" y="675" type="curve" smooth="yes"/>
    </contour>
    <contour>
      <point x="36.0" y="589" type="line"/>
      <point x="36.0" y="663" type="line"/>
      <point x="-36.0" y="663" type="line"/>
      <point x="-36.0" y="589" type="line"/>
    </contour>
    <contour>
      <point x="0" y="493" type="move" name="_top"/>
    </contour>
  </outline>
</glyph>
<glyph name="caroncmb" format="1">
  <advance width="0"/>
  <unicode hex="030C"/>
  <outline>
    <contour>
      <point x="140.0" y="653" type="line"/>
      <point x="39.0" y="526" type="line"/>
      <point x="-38.0" y="526" type="line"/>
      <point x="-139.0" y="653" type="line"/>
      <point x="-139.0" y="657" type="line"/>
      <point x="-67.0" y="657" type="line"/>
      <point x="0.0" y="601" type="line"/>
      <point x="67.0" y="657" type="line"/>
      <point x="140.0" y="657" type="line"/>
    </contour>
    <contour>
      <point x="0" y="493" type="move" name="_top"/>
    </contour>
  </outline>
</glyph>
<glyph name="commaturnedabovecmb" format="1">
  <advance width="0"/>
  <unicode hex="0312"/>
  <outline>
    <contour>
      <point x="-58" y="528" type="line" name="hr00"/>
      <point x="59" y="528" type="line"/>
      <point x="73" y="724" type="line"/>
      <point x="-1" y="724" type="line"/>
    </contour>
    <contour>
      <point x="0" y="493" type="move" name="_top"/>
    </contour>
  </outline>
</glyph>
<glyph name="tonos" format="1">
  <advance width="344.6"/>
  <unicode hex="0384"/>
  <outline>
    <contour>
      <point x="232.20000000000002" y="655.2" type="line"/>
      <point x="154.55" y="526.0" type="line"/>
      <point x="69.5" y="526.0" type="line"/>
      <point x="69.5" y="530.35" type="line"/>
      <point x="90.7" y="659.0" type="line"/>
      <point x="232.20000000000002" y="659.0" type="line"/>
    </contour>
  </outline>
</glyph>
<glyph name="dieresistonos" format="1">
  <advance width="482.6"/>
  <unicode hex="0385"/>
  <outline>
    <contour>
      <point x="406.35" y="526.0" type="line"/>
      <point x="313.20000000000005" y="526.0" type="line"/>
      <point x="313.20000000000005" y="617.55" type="line"/>
      <point x="406.35" y="617.55" type="line"/>
    </contour>
    <contour>
      <point x="169.4" y="526.0" type="line"/>
      <point x="76.25" y="526.0" type="line"/>
      <point x="76.25" y="617.55" type="line"/>
      <point x="169.4" y="617.55" type="line"/>
    </contour>
    <contour>
      <point x="320.0" y="655.2" type="line"/>
      <point x="263.55000000000007" y="526.0" type="line"/>
      <point x="187.5" y="526.0" type="line"/>
      <point x="187.5" y="530.35" type="line"/>
      <point x="187.5" y="659.0" type="line"/>
      <point x="320.0" y="659.0" type="line"/>
    </contour>
  </outline>
</glyph>
<glyph name="Theta" format="1">
  <advance width="494.5"/>
  <unicode hex="0398"/>
  <outline>
    <contour>
      <point x="114.10000000000001" y="0.0" type="curve" smooth="yes"/>
      <point x="379.40000000000003" y="0.0" type="line" smooth="yes"/>
      <point x="423.55" y="0.0"/>
      <point x="448.8" y="25.150000000000002"/>
      <point x="448.8" y="69.75" type="curve"/>
      <point x="448.8" y="694.25" type="line" smooth="yes"/>
      <point x="448.8" y="738.85"/>
      <point x="423.55" y="764.0"/>
      <point x="379.40000000000003" y="764.0" type="curve" smooth="yes"/>
      <point x="114.10000000000001" y="764.0" type="line" smooth="yes"/>
      <point x="69.95" y="764.0"/>
      <point x="45.7" y="738.85"/>
      <point x="45.7" y="694.25" type="curve" smooth="yes"/>
      <point x="45.7" y="69.75" type="line" smooth="yes"/>
      <point x="45.7" y="25.150000000000002"/>
      <point x="69.95" y="0.0"/>
    </contour>
    <contour>
      <point x="159.60000000000002" y="97.8" type="line"/>
      <point x="159.60000000000002" y="666.2" type="line"/>
      <point x="334.45000000000005" y="666.2" type="line"/>
      <point x="334.45000000000005" y="97.8" type="line"/>
    </contour>
    <contour>
      <point x="187.60000000000002" y="325.4" type="line"/>
      <point x="306.45000000000005" y="325.4" type="line"/>
      <point x="306.45000000000005" y="431.45000000000005" type="line"/>
      <point x="187.60000000000002" y="431.45000000000005" type="line"/>
    </contour>
  </outline>
</glyph>
<glyph name="Xi" format="1">
  <advance width="428.4"/>
  <unicode hex="039E"/>
  <outline>
    <contour>
      <point x="33.6" y="663.0500000000001" type="line"/>
      <point x="394.8" y="663.0500000000001" type="line"/>
      <point x="394.8" y="764.0" type="line"/>
      <point x="33.6" y="764.0" type="line"/>
    </contour>
    <contour>
      <point x="66.7" y="331.9" type="line"/>
      <point x="361.70000000000005" y="331.9" type="line"/>
      <point x="361.70000000000005" y="431.15000000000003" type="line"/>
      <point x="66.7" y="431.15000000000003" type="line"/>
    </contour>
    <contour>
      <point x="35.1" y="0.0" type="line"/>
      <point x="393.3" y="0.0" type="line"/>
      <point x="393.3" y="100.95" type="line"/>
      <point x="35.1" y="100.95" type="line"/>
    </contour>
  </outline>
</glyph>
<glyph name="Sigma" format="1">
  <advance width="388.80000000000007"/>
  <unicode hex="03A3"/>
  <outline>
    <contour>
      <point x="369.0" y="0.0" type="line"/>
      <point x="369.0" y="103.2" type="line"/>
      <point x="150.85000000000002" y="103.2" type="line"/>
      <point x="264.8" y="405.65" type="line"/>
      <point x="163.35000000000002" y="661.25" type="line"/>
      <point x="366.0" y="661.25" type="line"/>
      <point x="366.0" y="764.0" type="line"/>
      <point x="21.6" y="764.0" type="line"/>
      <point x="21.6" y="698.4000000000001" type="line"/>
      <point x="142.60000000000002" y="391.45000000000005" type="line"/>
      <point x="18.6" y="61.2" type="line"/>
      <point x="18.6" y="0.0" type="line"/>
    </contour>
  </outline>
</glyph>
<glyph name="Phi" format="1">
  <advance width="607.35"/>
  <unicode hex="03A6"/>
  <outline>
    <contour>
      <point x="247.40000000000003" y="0.0" type="line"/>
      <point x="359.95000000000005" y="0.0" type="line"/>
      <point x="359.95000000000005" y="86.85000000000001" type="line"/>
      <point x="491.8" y="86.85000000000001" type="line" smooth="yes"/>
      <point x="536.4000000000001" y="86.85000000000001"/>
      <point x="561.6500000000001" y="111.55000000000001"/>
      <point x="561.6500000000001" y="156.60000000000002" type="curve"/>
      <point x="561.6500000000001" y="607.4000000000001" type="line" smooth="yes"/>
      <point x="561.6500000000001" y="652.0"/>
      <point x="536.4000000000001" y="677.1500000000001"/>
      <point x="492.25" y="677.1500000000001" type="curve" smooth="yes"/>
      <point x="359.95000000000005" y="677.1500000000001" type="line"/>
      <point x="359.95000000000005" y="764.0" type="line"/>
      <point x="247.40000000000003" y="764.0" type="line"/>
      <point x="247.40000000000003" y="677.1500000000001" type="line"/>
      <point x="115.10000000000001" y="677.1500000000001" type="line" smooth="yes"/>
      <point x="70.95" y="677.1500000000001"/>
      <point x="45.7" y="652.0"/>
      <point x="45.7" y="607.4000000000001" type="curve" smooth="yes"/>
      <point x="45.7" y="156.60000000000002" type="line"/>
      <point x="45.7" y="111.55000000000001"/>
      <point x="70.95" y="86.85000000000001"/>
      <point x="115.55000000000001" y="86.85000000000001" type="curve" smooth="yes"/>
      <point x="247.40000000000003" y="86.85000000000001" type="line"/>
    </contour>
    <contour>
      <point x="449.1" y="583.85" type="line"/>
      <point x="449.1" y="179.25" type="line"/>
      <point x="359.95000000000005" y="179.25" type="line"/>
      <point x="359.95000000000005" y="583.85" type="line"/>
    </contour>
    <contour>
      <point x="158.25" y="179.25" type="line"/>
      <point x="158.25" y="583.85" type="line"/>
      <point x="247.40000000000003" y="583.85" type="line"/>
      <point x="247.40000000000003" y="179.25" type="line"/>
    </contour>
  </outline>
</glyph>
<glyph name="Psi" format="1">
  <advance width="602.85"/>
  <unicode hex="03A8"/>
  <outline>
    <contour>
      <point x="442.8" y="764.0" type="line"/>
      <point x="442.8" y="321.15" type="line"/>
      <point x="358.15" y="321.15" type="line"/>
      <point x="358.15" y="764.0" type="line"/>
      <point x="244.25000000000003" y="764.0" type="line"/>
      <point x="244.25000000000003" y="321.15" type="line"/>
      <point x="159.60000000000002" y="321.15" type="line"/>
      <point x="159.60000000000002" y="764.0" type="line"/>
      <point x="45.7" y="764.0" type="line"/>
      <point x="45.7" y="293.1" type="line"/>
      <point x="45.7" y="248.05"/>
      <point x="70.95" y="223.35000000000002"/>
      <point x="115.55000000000001" y="223.35000000000002" type="curve" smooth="yes"/>
      <point x="244.25000000000003" y="223.35000000000002" type="line"/>
      <point x="244.25000000000003" y="0.0" type="line"/>
      <point x="358.15" y="0.0" type="line"/>
      <point x="358.15" y="223.35000000000002" type="line"/>
      <point x="487.3" y="223.35000000000002" type="line" smooth="yes"/>
      <point x="531.9000000000001" y="223.35000000000002"/>
      <point x="557.1500000000001" y="248.05"/>
      <point x="557.1500000000001" y="293.1" type="curve"/>
      <point x="557.1500000000001" y="764.0" type="line"/>
    </contour>
  </outline>
</glyph>
<glyph name="Omega" format="1">
  <advance width="476.95000000000005"/>
  <unicode hex="03A9"/>
  <outline>
    <contour>
      <point x="361.40000000000003" y="190.45000000000002" type="line" smooth="yes"/>
      <point x="409.6" y="190.45000000000002"/>
      <point x="431.25" y="219.2"/>
      <point x="431.25" y="260.20000000000005" type="curve"/>
      <point x="431.25" y="694.25" type="line" smooth="yes"/>
      <point x="431.25" y="738.85"/>
      <point x="406.45000000000005" y="764.0"/>
      <point x="361.85" y="764.0" type="curve" smooth="yes"/>
      <point x="114.55000000000001" y="764.0" type="line" smooth="yes"/>
      <point x="69.95" y="764.0"/>
      <point x="45.7" y="738.85"/>
      <point x="45.7" y="694.25" type="curve" smooth="yes"/>
      <point x="45.7" y="260.20000000000005" type="line" smooth="yes"/>
      <point x="45.7" y="219.2"/>
      <point x="66.80000000000001" y="190.45000000000002"/>
      <point x="115.0" y="190.45000000000002" type="curve" smooth="yes"/>
    </contour>
    <contour>
      <point x="159.60000000000002" y="288.25" type="line"/>
      <point x="159.60000000000002" y="666.2" type="line"/>
      <point x="316.9" y="666.2" type="line"/>
      <point x="316.9" y="288.25" type="line"/>
    </contour>
    <contour>
      <point x="45.7" y="0.0" type="line"/>
      <point x="430.70000000000005" y="0.0" type="line"/>
      <point x="430.70000000000005" y="101.85000000000001" type="line"/>
      <point x="45.7" y="101.85000000000001" type="line"/>
    </contour>
  </outline>
</glyph>
<glyph name="eta" format="1">
  <advance width="408.6"/>
  <unicode hex="03B7"/>
  <outline>
    <contour>
      <point x="368.75" y="-189.0" type="line"/>
      <point x="257.40000000000003" y="-189.0" type="line"/>
      <point x="257.40000000000003" y="399.90000000000003" type="line"/>
      <point x="151.75" y="397.70000000000005" type="line"/>
      <point x="151.75" y="0.0" type="line"/>
      <point x="40.400000000000006" y="0.0" type="line"/>
      <point x="40.400000000000006" y="493.0" type="line"/>
      <point x="151.75" y="493.0" type="line"/>
      <point x="151.75" y="475.5" type="line"/>
      <point x="270.15000000000003" y="491.3" type="line" smooth="yes"/>
      <point x="283.20000000000005" y="493.20000000000005"/>
      <point x="297.05" y="495.1"/>
      <point x="307.55000000000007" y="495.1" type="curve" smooth="yes"/>
      <point x="348.5" y="495.1"/>
      <point x="368.75" y="474.5"/>
      <point x="368.75" y="434.90000000000003" type="curve" smooth="yes"/>
    </contour>
  </outline>
</glyph>
<glyph name="mu" format="1">
  <advance width="408.6"/>
  <unicode hex="03BC"/>
  <outline>
    <contour>
      <point x="151.75" y="-180.0" type="line"/>
      <point x="151.75" y="4.300000000000001" type="line"/>
      <point x="257.40000000000003" y="17.5" type="line"/>
      <point x="257.40000000000003" y="0.0" type="line"/>
      <point x="368.20000000000005" y="0.0" type="line"/>
      <point x="368.20000000000005" y="493.0" type="line"/>
      <point x="257.40000000000003" y="493.0" type="line"/>
      <point x="257.40000000000003" y="95.30000000000001" type="line"/>
      <point x="151.75" y="93.10000000000001" type="line"/>
      <point x="151.75" y="493.0" type="line"/>
      <point x="40.400000000000006" y="493.0" type="line"/>
      <point x="40.400000000000006" y="-180.0" type="line"/>
    </contour>
  </outline>
</glyph>
<glyph name="pi" format="1">
  <advance width="441.95000000000005"/>
  <unicode hex="03C0"/>
  <outline>
    <contour>
      <point x="168.40000000000003" y="0.0" type="line"/>
      <point x="168.40000000000003" y="398.20000000000005" type="line"/>
      <point x="270.75" y="398.20000000000005" type="line"/>
      <point x="270.75" y="62.95" type="line" smooth="yes"/>
      <point x="270.75" y="20.35"/>
      <point x="288.35" y="0.0"/>
      <point x="335.70000000000005" y="0.0" type="curve" smooth="yes"/>
      <point x="414.1" y="0.0" type="line"/>
      <point x="414.1" y="94.80000000000001" type="line"/>
      <point x="379.75" y="94.80000000000001" type="line"/>
      <point x="379.75" y="398.20000000000005" type="line"/>
      <point x="427.80000000000007" y="398.20000000000005" type="line"/>
      <point x="427.80000000000007" y="493.0" type="line"/>
      <point x="14.15" y="493.0" type="line"/>
      <point x="14.15" y="398.20000000000005" type="line"/>
      <point x="59.400000000000006" y="398.20000000000005" type="line"/>
      <point x="59.400000000000006" y="0.0" type="line"/>
    </contour>
  </outline>
</glyph>
<glyph name="rho" format="1">
  <advance width="408.05000000000007"/>
  <unicode hex="03C1"/>
  <outline>
    <contour>
      <point x="287.9" y="493.0" type="curve"/>
      <point x="92.80000000000001" y="493.0" type="line" smooth="yes"/>
      <point x="57.35" y="493.0"/>
      <point x="40.400000000000006" y="475.05000000000007"/>
      <point x="40.400000000000006" y="442.05" type="curve" smooth="yes"/>
      <point x="40.400000000000006" y="-180.0" type="line"/>
      <point x="151.75" y="-180.0" type="line"/>
      <point x="151.75" y="17.05" type="line"/>
      <point x="253.7" y="2.8" type="line" smooth="yes"/>
      <point x="267.05" y="0.9"/>
      <point x="290.1" y="-2.5500000000000003"/>
      <point x="299.90000000000003" y="-2.5500000000000003" type="curve" smooth="yes"/>
      <point x="348.35" y="-2.5500000000000003"/>
      <point x="368.20000000000005" y="20.3"/>
      <point x="368.75" y="66.7" type="curve"/>
      <point x="368.75" y="416.85" type="line" smooth="yes"/>
      <point x="368.75" y="468.40000000000003"/>
      <point x="337.45000000000005" y="493.0"/>
    </contour>
    <contour>
      <point x="242.00000000000003" y="93.10000000000001" type="curve" smooth="yes"/>
      <point x="237.55" y="93.10000000000001"/>
      <point x="231.15" y="93.10000000000001"/>
      <point x="215.15" y="94.1" type="curve" smooth="yes"/>
      <point x="151.75" y="98.0" type="line"/>
      <point x="151.75" y="400.45000000000005" type="line"/>
      <point x="236.25" y="400.45000000000005" type="line"/>
      <point x="251.10000000000002" y="400.45000000000005"/>
      <point x="257.40000000000003" y="394.70000000000005"/>
      <point x="257.40000000000003" y="380.5" type="curve" smooth="yes"/>
      <point x="257.40000000000003" y="112.6" type="line"/>
      <point x="257.40000000000003" y="97.75"/>
      <point x="253.3" y="93.10000000000001"/>
    </contour>
  </outline>
</glyph>
<glyph name="upsilon" format="1">
  <advance width="408.6"/>
  <unicode hex="03C5"/>
  <outline>
    <contour>
      <point x="257.40000000000003" y="493.0" type="line"/>
      <point x="257.40000000000003" y="92.55000000000001" type="line"/>
      <point x="151.20000000000002" y="92.55000000000001" type="line"/>
      <point x="151.20000000000002" y="493.0" type="line"/>
      <point x="40.400000000000006" y="493.0" type="line"/>
      <point x="40.400000000000006" y="78.95" type="line" smooth="yes"/>
      <point x="40.400000000000006" y="31.75"/>
      <point x="61.75000000000001" y="0.0"/>
      <point x="126.95000000000002" y="0.0" type="curve"/>
      <point x="289.90000000000003" y="0.0" type="line"/>
      <point x="349.75" y="0.0"/>
      <point x="368.20000000000005" y="34.1"/>
      <point x="368.20000000000005" y="78.95" type="curve" smooth="yes"/>
      <point x="368.20000000000005" y="493.0" type="line"/>
    </contour>
  </outline>
</glyph>
<glyph name="endash" format="1">
  <advance width="430"/>
  <unicode hex="2013"/>
  <outline>
    <contour>
      <point x="393" y="241" type="line"/>
      <point x="37" y="241" type="line"/>
      <point x="37" y="345" type="line"/>
      <point x="393" y="345" type="line"/>
    </contour>
  </outline>
</glyph>
<glyph name="quotesinglbase" format="1">
  <advance width="196"/>
  <unicode hex="201A"/>
  <outline>
    <contour>
      <point x="167" y="134" type="line"/>
      <point x="99" y="-105" type="line"/>
      <point x="26" y="-105" type="line"/>
      <point x="51" y="134" type="line"/>
    </contour>
  </outline>
</glyph>
<glyph name="quotedblleft" format="1">
  <advance width="359"/>
  <unicode hex="201C"/>
  <outline>
    <contour>
      <point x="327" y="764" type="line"/>
      <point x="303" y="525" type="line"/>
      <point x="187" y="525" type="line"/>
      <point x="255" y="764" type="line"/>
    </contour>
    <contour>
      <point x="165" y="764" type="line"/>
      <point x="140" y="525" type="line"/>
      <point x="24" y="525" type="line"/>
      <point x="93" y="764" type="line"/>
    </contour>
  </outline>
</glyph>
<glyph name="quotedblright" format="1">
  <advance width="359"/>
  <unicode hex="201D"/>
  <outline>
    <contour>
      <point x="334" y="764" type="line"/>
      <point x="266" y="525" type="line"/>
      <point x="194" y="525" type="line"/>
      <point x="219" y="764" type="line"/>
    </contour>
    <contour>
      <point x="171" y="764" type="line"/>
      <point x="104" y="525" type="line"/>
      <point x="31" y="525" type="line"/>
      <point x="56" y="764" type="line"/>
    </contour>
  </outline>
</glyph>
<glyph name="quotedblbase" format="1">
  <advance width="359"/>
  <unicode hex="201E"/>
  <outline>
    <contour>
      <point x="334" y="134" type="line"/>
      <point x="266" y="-105" type="line"/>
      <point x="194" y="-105" type="line"/>
      <point x="219" y="134" type="line"/>
    </contour>
    <contour>
      <point x="171" y="134" type="line"/>
      <point x="104" y="-105" type="line"/>
      <point x="31" y="-105" type="line"/>
      <point x="56" y="134" type="line"/>
    </contour>
  </outline>
</glyph>
<glyph name="dagger" format="1">
  <advance width="446"/>
  <unicode hex="2020"/>
  <outline>
    <contour>
      <point x="412" y="475" type="line"/>
      <point x="276" y="475" type="line"/>
      <point x="276" y="0" type="line"/>
      <point x="169" y="0" type="line"/>
      <point x="169" y="475" type="line"/>
      <point x="34" y="475" type="line"/>
      <point x="34" y="574" type="line"/>
      <point x="169" y="574" type="line"/>
      <point x="169" y="764" type="line"/>
      <point x="276" y="764" type="line"/>
      <point x="276" y="574" type="line"/>
      <point x="412" y="574" type="line"/>
    </contour>
  </outline>
</glyph>
<glyph name="daggerdbl" format="1">
  <advance width="446"/>
  <unicode hex="2021"/>
  <outline>
    <contour>
      <point x="412" y="190" type="line"/>
      <point x="276" y="190" type="line"/>
      <point x="276" y="0" type="line"/>
      <point x="170" y="0" type="line"/>
      <point x="170" y="190" type="line"/>
      <point x="34" y="190" type="line"/>
      <point x="34" y="289" type="line"/>
      <point x="170" y="289" type="line"/>
      <point x="170" y="483" type="line"/>
      <point x="34" y="483" type="line"/>
      <point x="34" y="582" type="line"/>
      <point x="170" y="582" type="line"/>
      <point x="170" y="764" type="line"/>
      <point x="276" y="764" type="line"/>
      <point x="276" y="582" type="line"/>
      <point x="412" y="582" type="line"/>
      <point x="412" y="483" type="line"/>
      <point x="276" y="483" type="line"/>
      <point x="276" y="289" type="line"/>
      <point x="412" y="289" type="line"/>
    </contour>
  </outline>
</glyph>
<glyph name="guilsinglleft" format="1">
  <advance width="318"/>
  <unicode hex="2039"/>
  <outline>
    <contour>
      <point x="278" y="76" type="line"/>
      <point x="156" y="76" type="line"/>
      <point x="32" y="262" type="line"/>
      <point x="32" y="280" type="line"/>
      <point x="156" y="466" type="line"/>
      <point x="278" y="466" type="line"/>
      <point x="278" y="462" type="line"/>
      <point x="151" y="271" type="line"/>
      <point x="278" y="80" type="line"/>
    </contour>
  </outline>
</glyph>
<glyph name="trademark" format="1">
  <advance width="600"/>
  <unicode hex="2122"/>
  <outline>
    <contour>
      <point x="564" y="323" type="line"/>
      <point x="493" y="323" type="line"/>
      <point x="493" y="560" type="line"/>
      <point x="445" y="366" type="line"/>
      <point x="402" y="366" type="line"/>
      <point x="354" y="560" type="line"/>
      <point x="354" y="323" type="line"/>
      <point x="284" y="323" type="line"/>
      <point x="284" y="764" type="line"/>
      <point x="359" y="764" type="line"/>
      <point x="424" y="529" type="line"/>
      <point x="490" y="764" type="line"/>
      <point x="564" y="764" type="line"/>
    </contour>
    <contour>
      <point x="247" y="698" type="line"/>
      <point x="172" y="698" type="line"/>
      <point x="172" y="323" type="line"/>
      <point x="101" y="323" type="line"/>
      <point x="101" y="698" type="line"/>
      <point x="25" y="698" type="line"/>
      <point x="25" y="764" type="line"/>
      <point x="247" y="764" type="line"/>
    </contour>
  </outline>
</glyph>
<glyph name="radical" format="1">
  <advance width="475"/>
  <unicode hex="221A"/>
  <outline>
    <contour>
      <point x="466" y="764" type="line"/>
      <point x="251" y="-1" type="line"/>
      <point x="139" y="-1" type="line"/>
      <point x="9" y="260" type="line"/>
      <point x="9" y="264" type="line"/>
      <point x="133" y="264" type="line"/>
      <point x="186" y="125" type="line"/>
      <point x="348" y="764" type="line"/>
    </contour>
  </outline>
</glyph>
<glyph name="fl" format="1">
  <advance width="451"/>
  <unicode hex="FB02"/>
  <outline>
    <contour>
      <point x="408" y="0" type="line"/>
      <point x="297" y="0" type="line"/>
      <point x="297" y="667" type="line"/>
      <point x="175" y="667" type="line"/>
      <point x="175" y="493" type="line"/>
      <point x="246" y="493" type="line"/>
      <point x="246" y="398" type="line"/>
      <point x="175" y="398" type="line"/>
      <point x="175" y="0" type="line"/>
      <point x="64" y="0" type="line"/>
      <point x="64" y="398" type="line"/>
      <point x="13" y="398" type="line"/>
      <point x="13" y="493" type="line"/>
      <point x="64" y="493" type="line"/>
      <point x="64" y="703" type="line" smooth="yes"/>
      <point x="64" y="744"/>
      <point x="84" y="764"/>
      <point x="126" y="764" type="curve" smooth="yes"/>
      <point x="408" y="764" type="line"/>
    </contour>
  </outline>
</glyph>
<glyph name="Y.salt" format="1">
  <advance width="470"/>
  <outline>
    <contour>
      <point x="425" y="354" type="line" smooth="yes"/>
      <point x="425" y="309"/>
      <point x="399" y="284"/>
      <point x="361" y="284" type="curve" smooth="yes"/>
      <point x="292" y="284" type="line"/>
      <point x="292" y="0" type="line"/>
      <point x="177" y="0" type="line"/>
      <point x="177" y="284" type="line"/>
      <point x="109" y="284" type="line" smooth="yes"/>
      <point x="71" y="284"/>
      <point x="46" y="309"/>
      <point x="46" y="354" type="curve" smooth="yes"/>
      <point x="46" y="764" type="line"/>
      <point x="162" y="764" type="line"/>
      <point x="162" y="383" type="line"/>
      <point x="308" y="383" type="line"/>
      <point x="308" y="764" type="line"/>
      <point x="425" y="764" type="line"/>
    </contour>
    <contour>
      <point x="235.0" y="764" type="move" name="top"/>
    </contour>
  </outline>
</glyph>
